<svg width="22" height="20" viewBox="0 0 22 20" fill="none" xmlns="http://www.w3.org/2000/svg">
<path d="M3.92893 5.92893L4.45926 5.3986L3.92893 5.92893ZM2 4L2.53033 3.46967L2 4ZM3.06107 18.0451L3.50191 17.4383H3.50191L3.06107 18.0451ZM1.95491 16.9389L1.34815 17.3798L1.95491 16.9389ZM20.0451 16.9389L19.4383 16.4981V16.4981L20.0451 16.9389ZM18.9389 18.0451L18.4981 17.4383V17.4383L18.9389 18.0451ZM3.06107 1.95491L2.62023 1.34815L2.62023 1.34815L3.06107 1.95491ZM1.95491 3.06107L1.34815 2.62023L1.34815 2.62023L1.95491 3.06107ZM16.519 8.51581C16.818 8.22918 16.8281 7.75441 16.5414 7.45538C16.2548 7.15636 15.78 7.14631 15.481 7.43294L16.519 8.51581ZM21.7424 7.9651C21.7373 7.55092 21.3974 7.21931 20.9832 7.22443C20.569 7.22956 20.2374 7.56947 20.2425 7.98365L21.7424 7.9651ZM13.991 1.75715C14.4052 1.76212 14.745 1.43038 14.7499 1.0162C14.7549 0.602012 14.4232 0.262225 14.009 0.25726L13.991 1.75715ZM1.62103 3.62103L0.945377 3.29546L1.62103 3.62103ZM4.45926 5.3986L2.53033 3.46967L1.46967 4.53033L3.3986 6.45926L4.45926 5.3986ZM3.3986 6.45926C5.05028 8.11094 6.34126 9.40417 7.48288 10.2752C8.64181 11.1594 9.73455 11.6789 11 11.6789V10.1789C10.1944 10.1789 9.41825 9.8651 8.39275 9.08267C7.34994 8.28703 6.14092 7.08026 4.45926 5.3986L3.3986 6.45926ZM10 1.75H12V0.25H10V1.75ZM12 18.25H10V19.75H12V18.25ZM10 18.25C8.10843 18.25 6.74999 18.249 5.69804 18.135C4.66013 18.0225 4.00992 17.8074 3.50191 17.4383L2.62024 18.6518C3.42656 19.2377 4.37094 19.5 5.53648 19.6263C6.68798 19.751 8.14184 19.75 10 19.75V18.25ZM0.25 10C0.25 11.8582 0.248971 13.312 0.373728 14.4635C0.500006 15.6291 0.762324 16.5734 1.34815 17.3798L2.56168 16.4981C2.19259 15.9901 1.97745 15.3399 1.865 14.302C1.75103 13.25 1.75 11.8916 1.75 10H0.25ZM3.50191 17.4383C3.14111 17.1762 2.82382 16.8589 2.56168 16.4981L1.34815 17.3798C1.70281 17.8679 2.13209 18.2972 2.62024 18.6518L3.50191 17.4383ZM20.25 10C20.25 11.8916 20.249 13.25 20.135 14.302C20.0225 15.3399 19.8074 15.9901 19.4383 16.4981L20.6518 17.3798C21.2377 16.5734 21.5 15.6291 21.6263 14.4635C21.751 13.312 21.75 11.8582 21.75 10H20.25ZM12 19.75C13.8582 19.75 15.312 19.751 16.4635 19.6263C17.6291 19.5 18.5734 19.2377 19.3798 18.6518L18.4981 17.4383C17.9901 17.8074 17.3399 18.0225 16.302 18.135C15.25 18.249 13.8916 18.25 12 18.25V19.75ZM19.4383 16.4981C19.1762 16.8589 18.8589 17.1762 18.4981 17.4383L19.3798 18.6518C19.8679 18.2972 20.2972 17.8679 20.6518 17.3798L19.4383 16.4981ZM10 0.25C8.14184 0.25 6.68798 0.248971 5.53648 0.373728C4.37094 0.500006 3.42656 0.762324 2.62023 1.34815L3.50191 2.56168C4.00992 2.19259 4.66013 1.97745 5.69804 1.865C6.74999 1.75103 8.10843 1.75 10 1.75V0.25ZM2.62023 1.34815C2.13209 1.70281 1.70281 2.13209 1.34815 2.62023L2.56168 3.50191C2.82382 3.14111 3.14111 2.82382 3.50191 2.56168L2.62023 1.34815ZM15.481 7.43294C13.403 9.42481 12.2532 10.1789 11 10.1789V11.6789C12.9309 11.6789 14.4872 10.4633 16.519 8.51581L15.481 7.43294ZM21.75 10C21.75 9.25528 21.75 8.57856 21.7424 7.9651L20.2425 7.98365C20.25 8.586 20.25 9.2528 20.25 10H21.75ZM12 1.75C12.7367 1.75 13.3952 1.75001 13.991 1.75715L14.009 0.25726C13.4025 0.249989 12.7343 0.25 12 0.25V1.75ZM20.25 3C20.25 3.69036 19.6904 4.25 19 4.25V5.75C20.5188 5.75 21.75 4.51878 21.75 3H20.25ZM19 4.25C18.3096 4.25 17.75 3.69036 17.75 3H16.25C16.25 4.51878 17.4812 5.75 19 5.75V4.25ZM17.75 3C17.75 2.30964 18.3096 1.75 19 1.75V0.25C17.4812 0.25 16.25 1.48122 16.25 3H17.75ZM19 1.75C19.6904 1.75 20.25 2.30964 20.25 3H21.75C21.75 1.48122 20.5188 0.25 19 0.25V1.75ZM1.75 10C1.75 8.36482 1.75049 7.12493 1.8255 6.13204C1.90037 5.14093 2.04588 4.46709 2.29668 3.9466L0.945377 3.29546C0.575154 4.06379 0.410141 4.95506 0.32976 6.01904C0.249513 7.08125 0.25 8.38643 0.25 10H1.75ZM2.29668 3.9466C2.37348 3.78722 2.46113 3.64031 2.56168 3.50191L1.34815 2.62023C1.19354 2.83304 1.06012 3.05734 0.945377 3.29546L2.29668 3.9466ZM2.53033 3.46967L2.15136 3.0907L1.0907 4.15136L1.46967 4.53033L2.53033 3.46967Z" fill="#111827"/>
</svg>
