<svg width="24" height="23" viewBox="0 0 24 23" fill="none" xmlns="http://www.w3.org/2000/svg">
<path d="M6.29367 3.96556C8.96048 2.028 10.2939 1.05923 11.8167 1.00336C11.9389 0.99888 12.0611 0.99888 12.1833 1.00336C13.7061 1.05923 15.0395 2.028 17.7063 3.96556C20.3732 5.90311 21.7066 6.87189 22.2303 8.30291C22.2723 8.41771 22.3101 8.534 22.3436 8.65157C22.761 10.1171 22.2517 11.6846 21.2331 14.8197L19.512 20.1164C19.2386 20.958 18.4543 21.5279 17.5694 21.5279C16.4412 21.5279 15.5267 20.6133 15.5267 19.4852V16.7363C15.5267 15.6778 14.6686 14.8197 13.6101 14.8197H10.3899C9.3314 14.8197 8.47329 15.6778 8.47329 16.7363V19.4852C8.47329 20.6133 7.55877 21.5279 6.43065 21.5279C5.54572 21.5279 4.76144 20.958 4.48798 20.1164L2.76696 14.8197C1.74832 11.6846 1.23901 10.1171 1.65645 8.65157C1.68994 8.534 1.72773 8.41771 1.76974 8.30291C2.29344 6.87189 3.62685 5.90311 6.29367 3.96556Z" stroke="#111827" stroke-width="1.5"/>
</svg>
